HIERARCHY
ROOT hip
{
  OFFSET 0 0 0
  CHANNELS 6 Xposition Yposition Zposition Zrotation Yrotation Xrotation
  JOINT abdomen
  {
    OFFSET 0 20.6881 -0.73152
    CHANNELS 3 Zrotation Xrotation Yrotation
    JOINT chest
    {
      OFFSET 0 11.7043 -0.48768
      CHANNELS 3 Zrotation Xrotation Yrotation
      JOINT neck
      {
        OFFSET 0 22.1894 -2.19456
        CHANNELS 3 Zrotation Xrotation Yrotation
        JOINT head
        {
          OFFSET -0.24384 7.07133 1.2192
          CHANNELS 3 Zrotation Xrotation Yrotation
          JOINT leftEye
          {
            OFFSET 4.14528 8.04674 8.04672
            CHANNELS 3 Zrotation Xrotation Yrotation
            End Site
            {
              OFFSET 1 0 0
            }
          }
          JOINT rightEye
          {
            OFFSET -3.6576 8.04674 8.04672
            CHANNELS 3 Zrotation Xrotation Yrotation
            End Site
            {
              OFFSET 1 0 0
            }
          }
        }
      }
      JOINT rCollar
      {
        OFFSET -2.68224 19.2634 -4.8768
        CHANNELS 3 Zrotation Xrotation Yrotation
        JOINT rShldr
        {
          OFFSET -8.77824 -1.95073 1.46304
          CHANNELS 3 Zrotation Xrotation Yrotation
          JOINT rForeArm
          {
            OFFSET -28.1742 -1.7115 0.48768
            CHANNELS 3 Zrotation Xrotation Yrotation
            JOINT rHand
            {
              OFFSET -22.5879 0.773209 7.07136
              CHANNELS 3 Zrotation Xrotation Yrotation
              JOINT rThumb1
              {
                OFFSET -1.2192 -0.487915 3.41376
                CHANNELS 3 Zrotation Xrotation Yrotation
                JOINT rThumb2
                {
                  OFFSET -3.37035 -0.52449 3.41376
                  CHANNELS 3 Zrotation Xrotation Yrotation
                  End Site
                  {
                    OFFSET -1.78271 -1.18214 1.43049
                  }
                }
              }
              JOINT rIndex1
              {
                OFFSET -7.75947 0.938293 5.60832
                CHANNELS 3 Zrotation Xrotation Yrotation
                JOINT rIndex2
                {
                  OFFSET -2.54057 -0.884171 1.56538
                  CHANNELS 3 Zrotation Xrotation Yrotation
                  End Site
                  {
                    OFFSET -1.62519 -0.234802 1.16502
                  }
                }
              }
              JOINT rMid1
              {
                OFFSET -8.24714 1.18213 3.41376
                CHANNELS 3 Zrotation Xrotation Yrotation
                JOINT rMid2
                {
                  OFFSET -3.10165 -0.590103 1.0647
                  CHANNELS 3 Zrotation Xrotation Yrotation
                  End Site
                  {
                    OFFSET -2.48547 -0.328903 0.83742
                  }
                }
              }
              JOINT rRing1
              {
                OFFSET -8.82822 0.546677 1.51678
                CHANNELS 3 Zrotation Xrotation Yrotation
                JOINT rRing2
                {
                  OFFSET -2.60934 -0.819778 -0.0198488
                  CHANNELS 3 Zrotation Xrotation Yrotation
                  End Site
                  {
                    OFFSET -2.33842 -0.294052 0.168128
                  }
                }
              }
              JOINT rPinky1
              {
                OFFSET -8.27202 -0.0477905 -0.4584
                CHANNELS 3 Zrotation Xrotation Yrotation
                JOINT rPinky2
                {
                  OFFSET -1.82734 -0.647385 -0.700984
                  CHANNELS 3 Zrotation Xrotation Yrotation
                  End Site
                  {
                    OFFSET -1.69225 -0.51767 -0.607171
                  }
                }
              }
            }
          }
        }
      }
      JOINT lCollar
      {
        OFFSET 2.68224 19.2634 -4.8768
        CHANNELS 3 Zrotation Xrotation Yrotation
        JOINT lShldr
        {
          OFFSET 8.77824 -1.95073 1.46304
          CHANNELS 3 Zrotation Xrotation Yrotation
          JOINT lForeArm
          {
            OFFSET 28.1742 -1.7115 0.48768
            CHANNELS 3 Zrotation Xrotation Yrotation
            JOINT lHand
            {
              OFFSET 22.5879 0.773209 7.07136
              CHANNELS 3 Zrotation Xrotation Yrotation
              JOINT lThumb1
              {
                OFFSET 1.2192 -0.487915 3.41376
                CHANNELS 3 Zrotation Xrotation Yrotation
                JOINT lThumb2
                {
                  OFFSET 3.37035 -0.52449 3.41376
                  CHANNELS 3 Zrotation Xrotation Yrotation
                  End Site
                  {
                    OFFSET 1.78271 -1.18214 1.43049
                  }
                }
              }
              JOINT lIndex1
              {
                OFFSET 7.75947 0.938293 5.60832
                CHANNELS 3 Zrotation Xrotation Yrotation
                JOINT lIndex2
                {
                  OFFSET 2.54057 -0.884171 1.56538
                  CHANNELS 3 Zrotation Xrotation Yrotation
                  End Site
                  {
                    OFFSET 1.62519 -0.234802 1.16502
                  }
                }
              }
              JOINT lMid1
              {
                OFFSET 8.24714 1.18213 3.41376
                CHANNELS 3 Zrotation Xrotation Yrotation
                JOINT lMid2
                {
                  OFFSET 3.10165 -0.590103 1.0647
                  CHANNELS 3 Zrotation Xrotation Yrotation
                  End Site
                  {
                    OFFSET 2.48547 -0.328903 0.83742
                  }
                }
              }
              JOINT lRing1
              {
                OFFSET 8.82822 0.546677 1.51678
                CHANNELS 3 Zrotation Xrotation Yrotation
                JOINT lRing2
                {
                  OFFSET 2.60934 -0.819778 -0.0198488
                  CHANNELS 3 Zrotation Xrotation Yrotation
                  End Site
                  {
                    OFFSET 2.33842 -0.294052 0.168128
                  }
                }
              }
              JOINT lPinky1
              {
                OFFSET 8.27202 -0.0477905 -0.4584
                CHANNELS 3 Zrotation Xrotation Yrotation
                JOINT lPinky2
                {
                  OFFSET 1.82734 -0.647385 -0.700984
                  CHANNELS 3 Zrotation Xrotation Yrotation
                  End Site
                  {
                    OFFSET 1.69225 -0.51767 -0.607171
                  }
                }
              }
            }
          }
        }
      }
    }
  }
  JOINT rButtock
  {
    OFFSET -8.77824 4.35084 1.2192
    CHANNELS 3 Zrotation Xrotation Yrotation
    JOINT rThigh
    {
      OFFSET 0 -1.70687 -2.19456
      CHANNELS 3 Zrotation Xrotation Yrotation
      JOINT rShin
      {
        OFFSET 0 -36.8199 0.73152
        CHANNELS 3 Zrotation Xrotation Yrotation
        JOINT rFoot
        {
          OFFSET 0.73152 -45.1104 -5.12064
          CHANNELS 3 Zrotation Xrotation Yrotation
          End Site
          {
            OFFSET -1.1221 -3.69964 12.103
          }
        }
      }
    }
  }
  JOINT lButtock
  {
    OFFSET 8.77824 4.35084 1.2192
    CHANNELS 3 Zrotation Xrotation Yrotation
    JOINT lThigh
    {
      OFFSET 0 -1.70687 -2.19456
      CHANNELS 3 Zrotation Xrotation Yrotation
      JOINT lShin
      {
        OFFSET 0 -36.8199 0.73152
        CHANNELS 3 Zrotation Xrotation Yrotation
        JOINT lFoot
        {
          OFFSET -0.73152 -45.1104 -5.12064
          CHANNELS 3 Zrotation Xrotation Yrotation
          End Site
          {
            OFFSET 1.1221 -3.69964 12.103
          }
        }
      }
    }
  }
}
MOTION
Frames:	4
Frame Time:	0.00833333
47.3731 62.6266 115.521 164.762 -3.9974 -142.025 -7.72203 -4.63776 -4.52055 -0.341901 7.80734 -1.09238 2.28667 16.2058 -7.72207 -5.20039 -18.6882 -16.8599 -0.0 0.0 0.0 -0.0 0.0 0.0 7.68352e-14 -1.42331e-13 -2.44589e-13 64.1731 29.0156 4.76972 -18.4678 -11.1985 35.0784 -0.0857445 -8.3237 -1.1782 1.00771e-09 -2.11643e-09 -8.25427e-11 1.75559e-09 -3.66206e-09 -1.37514e-10 1.00772e-09 -2.11642e-09 -8.25584e-11 7.73091 5.47488 0.417314 1.00771e-09 -2.11642e-09 -8.25477e-11 2.90554 0.965183 0.102902 1.00772e-09 -2.11642e-09 -8.255e-11 10.2786 0.731801 0.0259123 1.0077e-09 -2.11642e-09 -8.25451e-11 2.22167 -0.733487 -0.20892 7.66502e-14 -1.42329e-13 -2.44803e-13 -66.6314 9.9847 12.5077 10.4734 -4.43393 -18.6924 0.0618672 7.07209 -0.999063 1.97737e-09 9.34662e-10 -6.163e-09 3.37762e-09 1.65785e-09 -1.06614e-08 1.97737e-09 9.34659e-10 -6.16299e-09 -7.73091 5.47488 -0.417314 1.97738e-09 9.34657e-10 -6.163e-09 -2.90554 0.965183 -0.102902 1.97737e-09 9.34656e-10 -6.163e-09 -10.2786 0.731801 -0.0259123 1.97738e-09 9.34658e-10 -6.163e-09 -2.22167 -0.733487 0.20892 -2.03217e-16 0.0 -3.88251e-19 -58.2065 -55.7534 -25.4062 -0.0838782 36.5422 2.06111 4.4687 -16.1138 -12.4323 2.03217e-16 0.0 3.88251e-19 35.1379 -34.6283 -13.0322 -0.0951492 21.8018 -2.30706 -3.80988 -10.3539 17.5514
47.7396 62.8164 115.467 164.592 -3.6782 -141.941 -7.82316 -4.66307 -4.52103 -0.296646 7.85908 -1.09017 2.32758 16.2829 -7.70301 -5.21504 -18.8911 -16.8192 -0.0 0.0 0.0 -0.0 0.0 0.0 3.35765e-13 -2.98282e-13 2.7435e-14 64.7012 28.4686 4.71314 -18.4692 -11.2001 35.0819 -0.0865092 -8.36037 -1.18347 -9.70883e-10 -2.51342e-09 2.47477e-10 -1.65662e-09 -4.3465e-09 4.24916e-10 -9.70879e-10 -2.51342e-09 2.47461e-10 7.73091 5.47488 0.417314 -9.70885e-10 -2.51342e-09 2.47471e-10 2.90554 0.965183 0.102902 -9.70877e-10 -2.51342e-09 2.47469e-10 10.2786 0.731801 0.0259123 -9.70888e-10 -2.51342e-09 2.47476e-10 2.22167 -0.733487 -0.20892 3.3558e-13 -2.98272e-13 2.72319e-14 -67.01 9.85933 12.5382 10.4055 -4.39144 -18.5641 0.0635738 7.17161 -1.01326 3.77499e-10 1.73786e-09 -8.23601e-09 6.00182e-10 3.04601e-09 -1.4231e-08 3.77494e-10 1.73785e-09 -8.23601e-09 -7.73091 5.47488 -0.417314 3.77501e-10 1.73785e-09 -8.23602e-09 -2.90554 0.965183 -0.102902 3.77497e-10 1.73785e-09 -8.23601e-09 -10.2786 0.731801 -0.0259123 3.77502e-10 1.73785e-09 -8.23602e-09 -2.22167 -0.733487 0.20892 -2.03217e-16 0.0 -3.88251e-19 -57.7677 -55.9276 -24.9972 -0.0866353 36.438 2.03102 4.44094 -16.0742 -12.4252 2.03217e-16 0.0 3.88251e-19 35.1025 -34.0915 -12.5873 -0.105845 21.6646 -2.38074 -4.12697 -9.15487 17.7683
48.114 63.0256 115.348 164.384 -3.3285 -142.005 -7.84635 -4.66543 -4.53906 -0.246301 7.89304 -1.09569 2.34448 16.3049 -7.67461 -5.20705 -19.0061 -16.7594 -0.0 0.0 0.0 -0.0 0.0 0.0 4.95826e-13 -3.91215e-13 1.98884e-13 65.2036 27.9442 4.69774 -18.4546 -11.184 35.0482 -0.0864995 -8.36034 -1.18346 -2.11579e-09 -2.85551e-09 4.8665e-10 -3.63079e-09 -4.9368e-09 8.3386e-10 -2.11579e-09 -2.85551e-09 4.86634e-10 7.73091 5.47488 0.417314 -2.11579e-09 -2.85552e-09 4.86644e-10 2.90554 0.965183 0.102902 -2.11579e-09 -2.85551e-09 4.86643e-10 10.2786 0.731801 0.0259123 -2.1158e-09 -2.85551e-09 4.8665e-10 2.22167 -0.733487 -0.20892 4.95645e-13 -3.91202e-13 1.98685e-13 -67.3898 9.74513 12.5518 10.3457 -4.35407 -18.4513 0.0658431 7.30194 -1.03187 -5.70517e-10 2.2075e-09 -9.55653e-09 -1.04637e-09 3.8582e-09 -1.65056e-08 -5.70522e-10 2.20749e-09 -9.55653e-09 -7.73091 5.47488 -0.417314 -5.70515e-10 2.20749e-09 -9.55654e-09 -2.90554 0.965183 -0.102902 -5.70518e-10 2.20749e-09 -9.55653e-09 -10.2786 0.731801 -0.0259123 -5.70515e-10 2.20749e-09 -9.55654e-09 -2.22167 -0.733487 0.20892 -2.03217e-16 0.0 -3.88251e-19 -57.2333 -56.0771 -24.5481 -0.0884692 36.2804 1.99831 4.43138 -16.0112 -12.3726 2.03217e-16 0.0 3.88251e-19 35.055 -33.873 -12.1062 -0.114225 21.9054 -2.44166 -4.32954 -8.43599 17.8031
48.4836 63.2287 115.226 164.315 -3.1499 -142.107 -7.77237 -4.61412 -4.59159 -0.187594 7.87466 -1.11517 2.32347 16.246 -7.63181 -5.15774 -18.988 -16.6686 -0.0 0.0 0.0 -0.0 0.0 0.0 5.06856e-13 -3.97451e-13 2.18439e-13 65.684 27.4378 4.72777 -18.4167 -11.142 34.9614 -0.085228 -8.30037 -1.17485 -1.8891e-09 -3.29619e-09 6.27628e-10 -3.23798e-09 -5.69885e-09 1.07905e-09 -1.8891e-09 -3.29619e-09 6.27612e-10 7.73091 5.47488 0.417314 -1.88911e-09 -3.29619e-09 6.27622e-10 2.90554 0.965183 0.102902 -1.8891e-09 -3.29619e-09 6.27622e-10 10.2786 0.731801 0.0259123 -1.88911e-09 -3.29619e-09 6.27629e-10 2.22167 -0.733487 -0.20892 5.06687e-13 -3.97439e-13 2.18233e-13 -67.7771 9.61963 12.5648 10.2919 -4.32051 -18.35 0.0693718 7.49845 -1.05994 -4.0716e-10 2.15378e-09 -1.00578e-08 -7.6798e-10 3.76909e-09 -1.73735e-08 -4.07164e-10 2.15378e-09 -1.00578e-08 -7.73091 5.47488 -0.417314 -4.07158e-10 2.15378e-09 -1.00578e-08 -2.90554 0.965183 -0.102902 -4.07161e-10 2.15378e-09 -1.00578e-08 -10.2786 0.731801 -0.0259123 -4.07157e-10 2.15378e-09 -1.00578e-08 -2.22167 -0.733487 0.20892 -2.03217e-16 0.0 -3.88251e-19 -56.5681 -56.1829 -24.0252 -0.0893014 36.0494 1.96292 4.44618 -15.9251 -12.2563 2.03217e-16 0.0 3.88251e-19 35.013 -34.0718 -11.562 -0.116398 22.5946 -2.48201 -4.38012 -8.36063 17.4531
